<svg xmlns="http://www.w3.org/2000/svg" width="227.615" height="256" viewBox="0 0 227.615 256">
  <g id="lambda-icn" transform="translate(-89.849 -94.42)">
    <path id="Trazado_442" data-name="Trazado 442" d="M71.316,41.17a15.363,15.363,0,0,0,0,30.727c23.352,0,32.017,14.872,40.928,34.353l1.475,3.134c1.229,2.643,3.872,8.542,7.436,16.408L37.271,274.264A15.363,15.363,0,0,0,64,289.382l72.823-128.623c19.481,44,44,99.494,44.431,100.415A58.2,58.2,0,0,0,252.3,294.544a15.375,15.375,0,0,0-9.1-29.375,27.531,27.531,0,0,1-33.861-16.593c-2.458-5.531-59.856-135.751-67.6-152.282l-1.352-2.95C132.462,76.506,116.3,41.17,71.316,41.17Z" transform="translate(54.335 53.25)" fill="#020202"/>
  </g>
</svg>
