<svg xmlns="http://www.w3.org/2000/svg" width="236.312" height="256" viewBox="0 0 236.312 256">
  <g id="tiers-icn" transform="translate(-34.003 -3)">
    <g id="tiers" transform="translate(34.003 3)">
      <path id="Trazado_441" data-name="Trazado 441" d="M122.387,3a9.847,9.847,0,0,0-5.154,1.308L8.925,66.851a9.847,9.847,0,0,0,0,17.039l33.4,19.289-33.4,19.289a9.847,9.847,0,0,0,0,17.058l33.4,19.27-33.4,19.289a9.847,9.847,0,0,0,0,17.058l108.308,62.54a9.847,9.847,0,0,0,9.846,0l108.308-62.54a9.847,9.847,0,0,0,0-17.058l-33.4-19.289,33.4-19.27a9.847,9.847,0,0,0,0-17.058l-33.4-19.289,33.4-19.289a9.847,9.847,0,0,0,0-17.039L127.079,4.311A9.847,9.847,0,0,0,122.387,3ZM62.041,114.563l55.192,31.866a9.847,9.847,0,0,0,9.846,0l55.192-31.866,28.5,16.443L122.156,182.16,33.54,131.006Zm-.02,55.617,55.212,31.866a9.847,9.847,0,0,0,9.846,0l55.212-31.866,28.481,16.443-88.615,51.155L33.54,186.622Z" transform="translate(-4 -3)"/>
    </g>
  </g>
</svg>
