<svg xmlns="http://www.w3.org/2000/svg" width="17" height="16.986" viewBox="0 0 17 16.986">
  <g id="Tools" transform="translate(-56.747 -82.596)">
    <g id="Grupo_1868" data-name="Grupo 1868">
      <path id="Trazado_6843" data-name="Trazado 6843" d="M71.847,82.6,68.6,84.36l.016.961-2.387,2.387,2.411,2.411,2.42-2.42.871,0,1.82-3.206Z" fill="#bccee6"/>
      <path id="Trazado_6844" data-name="Trazado 6844" d="M61.539,92.4l-4.525,4.525a.852.852,0,0,0,0,1.205l1.205,1.206a.853.853,0,0,0,1.206,0l4.524-4.525Z" fill="#bccee6"/>
    </g>
    <path id="Trazado_6845" data-name="Trazado 6845" d="M73.162,96.921l-9.736-9.735a3.381,3.381,0,0,0-4.152-4.153L61.343,85.1l-2.411,2.411-2.069-2.069A3.381,3.381,0,0,0,61.016,89.6l9.735,9.736a.853.853,0,0,0,1.206,0l1.205-1.206A.852.852,0,0,0,73.162,96.921Z" fill="#bccee6"/>
  </g>
</svg>
