<svg xmlns="http://www.w3.org/2000/svg" viewBox="0 0 81.879 23.119"><defs><style>.cls-1{fill:#1b1556;}</style></defs><g id="Layer_2" data-name="Layer 2"><g id="Layer_1-2" data-name="Layer 1"><path class="cls-1" d="M10.086,13.4,8.969,14.573a4.2,4.2,0,0,0-3.01-1.279,3.886,3.886,0,0,0-3.884,4.093,3.888,3.888,0,0,0,3.884,4.1A4.4,4.4,0,0,0,9,20.2l1.082,1.186A5.344,5.344,0,0,1,6,23.119a5.512,5.512,0,0,1-5.7-5.732A5.509,5.509,0,0,1,6,11.667,5.328,5.328,0,0,1,10.086,13.4Z"/><path class="cls-1" d="M23.608,17.387a5.637,5.637,0,0,1-5.8,5.732,5.628,5.628,0,0,1-5.791-5.732,5.626,5.626,0,0,1,5.791-5.72A5.635,5.635,0,0,1,23.608,17.387Zm-9.825,0a4.024,4.024,0,1,0,8.046,0,4.024,4.024,0,1,0-8.046,0Z"/><path class="cls-1" d="M36.862,16.073V22.9H35.129V16.643c0-2.093-1.163-3.325-3.174-3.325a3.24,3.24,0,0,0-3.371,3.372V22.9H26.839V11.888H28.56v1.569a4.354,4.354,0,0,1,3.709-1.79A4.261,4.261,0,0,1,36.862,16.073Z"/><path class="cls-1" d="M48.2,14.225a6.872,6.872,0,0,0-3.605-1.035c-1.569,0-2.6.663-2.6,1.732,0,.919.8,1.372,2.244,1.547l1.3.163c2.338.3,3.7,1.267,3.7,3.069,0,2.093-1.884,3.407-4.849,3.407A7.725,7.725,0,0,1,39.791,21.7l.8-1.3a5.8,5.8,0,0,0,3.815,1.2c1.86,0,3.034-.616,3.034-1.778,0-.884-.744-1.419-2.3-1.605l-1.314-.151c-2.477-.3-3.639-1.408-3.639-3.046,0-2.082,1.755-3.338,4.4-3.338a8.067,8.067,0,0,1,4.372,1.2Z"/><path class="cls-1" d="M63.033,17.387a5.8,5.8,0,0,1-11.593,0,5.8,5.8,0,0,1,11.593,0Zm-9.825,0a4.023,4.023,0,1,0,8.045,0,4.023,4.023,0,1,0-8.045,0Z"/><path class="cls-1" d="M68.008,22.9H66.264V6.155h1.744Z"/><path class="cls-1" d="M81.879,17.353a5.606,5.606,0,0,1-.035.65H73.019a3.743,3.743,0,0,0,3.9,3.593A5.1,5.1,0,0,0,80.4,20.213l.931,1.186a6.179,6.179,0,0,1-4.524,1.72A5.394,5.394,0,0,1,71.24,17.4a5.406,5.406,0,0,1,5.465-5.732C79.693,11.667,81.856,14,81.879,17.353ZM73.043,16.6h7.069a3.446,3.446,0,0,0-3.442-3.384A3.59,3.59,0,0,0,73.043,16.6Z"/><rect class="cls-1" x="13.484" y="0.12" width="2.328" height="6.875"/><path class="cls-1" d="M10.662.215,5.936,3.1a.21.21,0,0,1-.219,0L.992.215A.651.651,0,0,0,.654.12H.648A.648.648,0,0,0,0,.768v6.22H2.327V4.028a.233.233,0,0,1,.354-.2l2.648,1.62a.829.829,0,0,0,.853.008l2.8-1.639a.232.232,0,0,1,.35.2V6.988h2.327V.768A.648.648,0,0,0,11.006.12H11A.651.651,0,0,0,10.662.215Z"/><path class="cls-1" d="M27.422.12H25.061V3.25a.233.233,0,0,1-.342.205L18.6.2A.662.662,0,0,0,18.3.12h0a.648.648,0,0,0-.648.648v6.22h2.342V3.863a.233.233,0,0,1,.342-.206L26.47,6.915a.646.646,0,0,0,.3.076h0a.648.648,0,0,0,.648-.648Z"/><path class="cls-1" d="M29.252,7V.12h1.072V7Z"/><path class="cls-1" d="M36.629,7.119c-2.882,0-4.927-1.368-4.927-3.56S33.759,0,36.629,0s4.938,1.367,4.938,3.559S39.547,7.119,36.629,7.119Zm0-6.208c-2.143,0-3.794.936-3.794,2.648s1.651,2.648,3.794,2.648,3.805-.923,3.805-2.648S38.772.911,36.629.911Z"/></g></g></svg>