<svg xmlns="http://www.w3.org/2000/svg" viewBox="0 0 82.816 18.487"><defs><style>.cls-1{fill:#1e1059;}</style></defs><title>mkube_logo_temp</title><g id="Layer_2" data-name="Layer 2"><g id="Layer_1-2" data-name="Layer 1"><path class="cls-1" d="M19,18.127H16.152V3.612L11,16.4H8L2.848,3.751V18.127H0V.487H4.372L9.5,13.087,14.628.487H19Z"/><path class="cls-1" d="M28.556,10.623h-1.7v7.533H24V.489h2.852V7.922h1.741L35.231.489h3.685l-7.95,8.619,8.492,9.048H35.584Z"/><path class="cls-1" d="M51.962,13.049c0,3.848-2.775,5.438-5.6,5.438s-5.6-1.59-5.6-5.438V6.083h2.65v6.726c0,2.335,1.3,3.192,2.953,3.192s2.952-.857,2.952-3.192V6.083h2.65Z"/><path class="cls-1" d="M68.6,12.127a6.068,6.068,0,0,1-6.045,6.36,4.584,4.584,0,0,1-3.785-1.754v1.439H56.136V0h2.638V7.521a4.584,4.584,0,0,1,3.785-1.753A6.068,6.068,0,0,1,68.6,12.127Zm-10.007,0a3.654,3.654,0,1,0,7.294,0,3.654,3.654,0,1,0-7.294,0Z"/><path class="cls-1" d="M82.816,12.115c0,.34-.025.681-.051.984H73.831a3.415,3.415,0,0,0,3.6,3.079,5.778,5.778,0,0,0,3.5-1.275l1.312,1.881a7.279,7.279,0,0,1-4.971,1.7,5.963,5.963,0,0,1-6.184-6.36c0-3.785,2.461-6.359,6.02-6.359C80.481,5.768,82.8,8.342,82.816,12.115Zm-8.972-1.022h6.271c-.29-1.881-1.388-2.979-3.066-2.979A3.123,3.123,0,0,0,73.844,11.093Z"/></g></g></svg>